<svg viewBox="0 0 20 20" xmlns="http://www.w3.org/2000/svg"><g fill="#565d66"><path d="m10.52 8.24a1.44 1.44 0 0 0 .48-1.14 1.47 1.47 0 0 0 -.49-1.1 1.62 1.62 0 0 0 -1.1-.46 1.27 1.27 0 0 0 -.32 0 2.12 2.12 0 0 1 .54-1.54 4.54 4.54 0 0 1 1.29-1l-.8-1a4.64 4.64 0 0 0 -.85.44 4.08 4.08 0 0 0 -.91.83 5.19 5.19 0 0 0 -.75 1.32 5.14 5.14 0 0 0 -.3 1.84 2.3 2.3 0 0 0 .56 1.68 2 2 0 0 0 1.48.55 1.71 1.71 0 0 0 1.17-.42z"/><path d="m4.1 5.5a1.27 1.27 0 0 0 -.32 0 2.12 2.12 0 0 1 .54-1.5 4.69 4.69 0 0 1 1.29-1l-.8-1a5 5 0 0 0 -.81.44 4.08 4.08 0 0 0 -.91.83 5.19 5.19 0 0 0 -.79 1.32 5.14 5.14 0 0 0 -.3 1.84 2.3 2.3 0 0 0 .56 1.68 2 2 0 0 0 1.44.55 1.71 1.71 0 0 0 1.17-.42 1.44 1.44 0 0 0 .52-1.14 1.47 1.47 0 0 0 -.49-1.1 1.62 1.62 0 0 0 -1.1-.5z"/><path d="m10.65 11.34a1.71 1.71 0 0 0 -1.17.42 1.44 1.44 0 0 0 -.48 1.14 1.47 1.47 0 0 0 .49 1.1 1.62 1.62 0 0 0 1.1.46 1.27 1.27 0 0 0 .32 0 2.12 2.12 0 0 1 -.54 1.54 4.54 4.54 0 0 1 -1.29.95l.8 1.05a4.64 4.64 0 0 0 .85-.44 4.08 4.08 0 0 0 .91-.83 5.19 5.19 0 0 0 .75-1.32 5.14 5.14 0 0 0 .3-1.84 2.3 2.3 0 0 0 -.56-1.68 2 2 0 0 0 -1.48-.55z"/><path d="m17.44 11.89a2 2 0 0 0 -1.44-.55 1.71 1.71 0 0 0 -1.17.42 1.44 1.44 0 0 0 -.48 1.14 1.47 1.47 0 0 0 .45 1.1 1.62 1.62 0 0 0 1.1.46 1.27 1.27 0 0 0 .32 0 2.12 2.12 0 0 1 -.54 1.54 4.69 4.69 0 0 1 -1.29.95l.8 1.09a5 5 0 0 0 .85-.44 4.08 4.08 0 0 0 .91-.83 5.19 5.19 0 0 0 .75-1.32 5.14 5.14 0 0 0 .3-1.84 2.3 2.3 0 0 0 -.56-1.72z"/></g></svg>