<svg viewBox="0 0 20 20" xmlns="http://www.w3.org/2000/svg"><g fill="#565d66"><path d="m1.42 9.53h2.64l.55 1.36h.88l-2.37-5.53h-.68l-2.44 5.53h.88zm1.32-3.2 1 2.54h-2.05z"/><path d="m9.71 8.4a1.2 1.2 0 0 0 -.38-.29 1.06 1.06 0 0 0 -.47-.11 1.55 1.55 0 0 0 .69-.44 1.12 1.12 0 0 0 .27-.78 1.44 1.44 0 0 0 -.13-.61 1.17 1.17 0 0 0 -.36-.43 1.38 1.38 0 0 0 -.53-.26 2.8 2.8 0 0 0 -.67-.08h-1.92v5.53h1.9a2.68 2.68 0 0 0 .76-.1 2.08 2.08 0 0 0 .62-.29 1.79 1.79 0 0 0 .42-.54 1.4 1.4 0 0 0 .15-.66 1.53 1.53 0 0 0 -.35-.95zm-2.71-2.4h1.14a.83.83 0 0 1 .67.25.84.84 0 0 1 .19.58.86.86 0 0 1 -.08.38.82.82 0 0 1 -.23.26.82.82 0 0 1 -.33.14 1.6 1.6 0 0 1 -.39 0h-.97zm2.14 3.77a1 1 0 0 1 -.31.29 1.07 1.07 0 0 1 -.39.14 1.76 1.76 0 0 1 -.38 0h-1.06v-1.89h1.07a1.35 1.35 0 0 1 .87.25.88.88 0 0 1 .32.74.8.8 0 0 1 -.12.47z"/><path d="m15 9.35a1.5 1.5 0 0 0 -.1-.52 1.52 1.52 0 0 0 -.25-.43 1.33 1.33 0 0 0 -.38-.29 1.1 1.1 0 0 0 -.48-.11 1.55 1.55 0 0 0 .69-.44 1.17 1.17 0 0 0 .26-.78 1.31 1.31 0 0 0 -.13-.61 1.06 1.06 0 0 0 -.35-.43 1.46 1.46 0 0 0 -.53-.26 2.86 2.86 0 0 0 -.67-.08h-1.92v5.53h1.86a2.68 2.68 0 0 0 .76-.1 1.92 1.92 0 0 0 .61-.29 1.51 1.51 0 0 0 .42-.49 1.4 1.4 0 0 0 .21-.7zm-3.11-3.35h1.18a.81.81 0 0 1 .88.82.74.74 0 0 1 -.09.38.78.78 0 0 1 -.22.26.82.82 0 0 1 -.33.14 1.68 1.68 0 0 1 -.4 0h-1zm2.17 3.76a.83.83 0 0 1 -.3.29 1.07 1.07 0 0 1 -.39.14 1.76 1.76 0 0 1 -.38 0h-1.1v-1.88h1.11a1.38 1.38 0 0 1 .87.25.88.88 0 0 1 .32.74.73.73 0 0 1 -.13.47z"/><path d="m20 10.89-1.57-2.52a1.47 1.47 0 0 0 .57-.17 1.32 1.32 0 0 0 .43-.34 1.34 1.34 0 0 0 .27-.44 1.32 1.32 0 0 0 .1-.51 2 2 0 0 0 -.08-.54 1.13 1.13 0 0 0 -.28-.5 1.47 1.47 0 0 0 -.54-.37 2.22 2.22 0 0 0 -.9-.14h-1.93v5.53h.75v-2.44h.83l1.41 2.44zm-2.2-3.09h-1v-1.8h1a2.18 2.18 0 0 1 .44 0 1 1 0 0 1 .38.13.7.7 0 0 1 .27.27.87.87 0 0 1 .1.46.86.86 0 0 1 -.1.45.7.7 0 0 1 -.27.27 1.14 1.14 0 0 1 -.38.13 2.18 2.18 0 0 1 -.44.09z"/><path d="m0 13.39h1.88v1.25h-1.88z"/><path d="m3.63 13.39h1.88v1.25h-1.88z"/><path d="m7.25 13.39h1.88v1.25h-1.88z"/><path d="m10.88 13.39h1.88v1.25h-1.88z"/><path d="m14.5 13.39h1.88v1.25h-1.88z"/><path d="m18.13 13.39h1.88v1.25h-1.88z"/></g></svg>