<svg viewBox="0 0 20 20" xmlns="http://www.w3.org/2000/svg"><g fill="#565d66"><path d="m3.18 4.29h5.43l-.15 1.07h-4.29l-.34 2.51h4l-.17 1.07h-4l-.38 2.7h4.5l-.14 1.07h-5.64z"/><path d="m9.78 7.07h1l-.12.93a1.25 1.25 0 0 1 .23-.29 1.7 1.7 0 0 1 .43-.34 3.12 3.12 0 0 1 .6-.37 2.35 2.35 0 0 1 .71-.11 1.55 1.55 0 0 1 1.61 1.11 2.25 2.25 0 0 1 .89-.79 2.38 2.38 0 0 1 1-.26 2.21 2.21 0 0 1 1 .21 1.42 1.42 0 0 1 .57.57 2 2 0 0 1 .21.8 4.13 4.13 0 0 1 0 .92l-.44 3.28h-1.03l.44-3.14a4.4 4.4 0 0 0 0-.62 1.38 1.38 0 0 0 -.1-.52.74.74 0 0 0 -.32-.36 1.06 1.06 0 0 0 -.61-.14 1.47 1.47 0 0 0 -1.17.47 2.46 2.46 0 0 0 -.51 1.23l-.42 3.08h-1.03l.4-3a7 7 0 0 0 .07-.73 1.62 1.62 0 0 0 -.09-.57.72.72 0 0 0 -.3-.38 1.06 1.06 0 0 0 -.61-.14 1.65 1.65 0 0 0 -.57.11 1.73 1.73 0 0 0 -.52.34 2 2 0 0 0 -.39.58 2.71 2.71 0 0 0 -.24.83l-.41 2.92h-1.06z"/><path d="m2 14.71h16v1h-16z"/></g></svg>