<svg viewBox="0 0 20 20" xmlns="http://www.w3.org/2000/svg"><g fill="#565d66"><path d="m0 2.19v11.25h7.5v3.75h-1.88v.62h8.76v-.62h-1.88v-3.75h7.5v-11.25zm11.88 15h-3.76v-3.75h3.76zm7.18-4.69h-18.12v-.62h18.12zm0-1.25h-18.12v-8.13h18.12z"/><path d="m14.06 4.38h-8.12v5.62h8.12zm-.62 5h-6.88v-4.38h6.88z"/><path d="m10 7.9a.3.3 0 0 0 -.2.1.27.27 0 0 0 -.08.19.43.43 0 0 0 0 .11l.06.08.09.06h.11a.27.27 0 0 0 .28-.28.25.25 0 0 0 -.06-.16.27.27 0 0 0 -.2-.1z"/><path d="m10.21 7.64.16-1.7h-.74l.16 1.7z"/></g></svg>