<svg viewBox="0 0 20 20" xmlns="http://www.w3.org/2000/svg"><g fill="#565d66"><path d="m3.3 11.16h.08l1.29-4h1.62l-2.2 5.74h-1.61l-2.48-5.77h1.74z"/><path d="m7.65 7.53a6.08 6.08 0 0 1 1.07-.36 6 6 0 0 1 1.43-.17 3.09 3.09 0 0 1 1 .14 1.77 1.77 0 0 1 .68.41 1.52 1.52 0 0 1 .37.64 2.64 2.64 0 0 1 .12.83v1a6.83 6.83 0 0 0 0 .74v.54a1.71 1.71 0 0 1 0 .31h.76v1.29h-1.94l-.14-.78h-.06a2 2 0 0 1 -.65.62 2.25 2.25 0 0 1 -1.16.26 2 2 0 0 1 -1.37-.47 1.58 1.58 0 0 1 -.5-1.22 1.86 1.86 0 0 1 .18-.84 1.55 1.55 0 0 1 .56-.57 2.44 2.44 0 0 1 .82-.34 4.86 4.86 0 0 1 1.06-.11h.43.57a1.79 1.79 0 0 0 0-.23v-.15a.77.77 0 0 0 -.25-.63 1.29 1.29 0 0 0 -.75-.19 3.41 3.41 0 0 0 -1 .15 6.05 6.05 0 0 0 -.88.3zm2 4.23a1.44 1.44 0 0 0 .82-.2 1.59 1.59 0 0 0 .4-.43v-.7h-.35a3.68 3.68 0 0 0 -.49 0 3.13 3.13 0 0 0 -.43 0 1.37 1.37 0 0 0 -.39.13.84.84 0 0 0 -.27.22.58.58 0 0 0 -.11.34.67.67 0 0 0 .19.5.91.91 0 0 0 .6.14z"/><path d="m14 11.63h1.43v-3.23h-1.43v-1.27h2.59l.18.77a3 3 0 0 1 .74-.64 1.83 1.83 0 0 1 1-.26 1.33 1.33 0 0 1 1.09.51 2.78 2.78 0 0 1 .4 1.7h-1.35a1.19 1.19 0 0 0 -.12-.61.44.44 0 0 0 -.39-.19 1.13 1.13 0 0 0 -.74.23 2.65 2.65 0 0 0 -.48.53v2.46h2.5v1.27h-5.42z"/></g></svg>