<svg viewBox="0 0 20 20" xmlns="http://www.w3.org/2000/svg"><path d="m14.5 9a3.54 3.54 0 0 1 2 .63v-5.93l-5.75.72v8h.26a3.49 3.49 0 0 1 3.49-3.42z" fill="none"/><path d="m3.5 11.68 5.75.71v-7.97l-5.75-.72z" fill="none"/><g fill="#565d66"><path d="m18 13v-.5a4.4 4.4 0 0 1 0 .5z"/><path d="m8.38 5.29-4-.5v1.01l4 .5z"/><path d="m8.38 7.79-4-.5v1.01l4 .5z"/><path d="m8.38 10.29-4-.5v1.01l4 .5z"/><path d="m15.63 4.79-4 .5v1.01l4-.5z"/><path d="m15.63 7.29-4 .5v1.01l4-.5z"/><path d="m10 3-8-1v11l8 1 1.28-.16a3.45 3.45 0 0 0 .28.54l-2.62 2.56 1.06 1.06 2.62-2.56a3.47 3.47 0 0 0 5.38-2.44 4.4 4.4 0 0 0 0-.5v-10.5zm-.75 9.39-5.75-.71v-8l5.75.72zm7.12.81a2 2 0 0 1 -3.87-.7c0-.11 0-.22 0-.33a2 2 0 0 1 3.8-.47 1.91 1.91 0 0 1 .17.8 2 2 0 0 1 -.1.7zm.13-3.57a3.54 3.54 0 0 0 -2-.63 3.49 3.49 0 0 0 -3.5 3.36h-.26v-8l5.76-.66z"/></g></svg>